<?xml version="1.0" encoding="UTF-8" standalone="no"?>
<!-- Created with Inkscape (http://www.inkscape.org/) -->

<svg
   xmlns:dc="http://purl.org/dc/elements/1.1/"
   xmlns:cc="http://creativecommons.org/ns#"
   xmlns:rdf="http://www.w3.org/1999/02/22-rdf-syntax-ns#"
   xmlns:svg="http://www.w3.org/2000/svg"
   xmlns="http://www.w3.org/2000/svg"
   xmlns:sodipodi="http://sodipodi.sourceforge.net/DTD/sodipodi-0.dtd"
   xmlns:inkscape="http://www.inkscape.org/namespaces/inkscape"
   width="40.731369mm"
   height="40.77441mm"
   viewBox="0 0 40.731368 40.774411"
   version="1.1"
   id="svg420"
   inkscape:version="0.92.3 (2405546, 2018-03-11)"
   sodipodi:docname="facebook_meaningful_logo.svg">
  <defs
     id="defs414">
    <linearGradient
       y2="174.70815"
       x2="146.52715"
       y1="131.02763"
       x1="123.64119"
       id="w"
       gradientTransform="matrix(0.28890068,0,0,0.24231282,-120.19642,241.14881)"
       gradientUnits="userSpaceOnUse">
      <stop
         id="stop629"
         offset="0"
         stop-color="#eff7fc" />
      <stop
         id="stop631"
         offset="1"
         stop-color="#fff" />
    </linearGradient>
  </defs>
  <sodipodi:namedview
     id="base"
     pagecolor="#ffffff"
     bordercolor="#666666"
     borderopacity="1.0"
     inkscape:pageopacity="0.0"
     inkscape:pageshadow="2"
     inkscape:zoom="2.8"
     inkscape:cx="120.4011"
     inkscape:cy="135.78737"
     inkscape:document-units="mm"
     inkscape:current-layer="g1493"
     showgrid="false"
     fit-margin-top="0"
     fit-margin-left="0"
     fit-margin-right="0"
     fit-margin-bottom="0"
     inkscape:window-width="1920"
     inkscape:window-height="1053"
     inkscape:window-x="0"
     inkscape:window-y="27"
     inkscape:window-maximized="1"
     inkscape:snap-bbox="true"
     inkscape:bbox-paths="true"
     inkscape:bbox-nodes="true"
     inkscape:snap-bbox-edge-midpoints="true"
     inkscape:snap-bbox-midpoints="true" />
  <metadata
     id="metadata417">
    <rdf:RDF>
      <cc:Work
         rdf:about="">
        <dc:format>image/svg+xml</dc:format>
        <dc:type
           rdf:resource="http://purl.org/dc/dcmitype/StillImage" />
        <dc:title></dc:title>
      </cc:Work>
    </rdf:RDF>
  </metadata>
  <g
     inkscape:label="Layer 1"
     inkscape:groupmode="layer"
     id="layer1"
     transform="translate(-0.8808897,-64.889268)">
    <g
       style="display:inline"
       id="g1447"
       transform="translate(-138.04598,-7.9452146)">
      <g
         style="display:inline"
         id="g1395"
         transform="translate(-8.1301138,87.969836)">
        <g
           style="display:inline"
           id="g1404"
           transform="translate(201.29915,-91.467636)">
          <g
             style="display:inline"
             id="g1414"
             transform="translate(-86.103911,-11.995006)">
            <g
               style="display:inline"
               id="g1438"
               transform="translate(-69.177822,-3.984044)">
              <g
                 style="display:inline"
                 id="g1384"
                 transform="translate(-5.6910645,77.248537)">
                <g
                   style="display:inline"
                   id="g1454"
                   transform="translate(132.33961,-176.14747)">
                  <g
                     style="display:inline"
                     id="g1469"
                     transform="translate(-54.446811,-0.10687671)">
                    <g
                       style="display:inline"
                       id="g1486"
                       transform="translate(-145.1656,9.8421202)">
                      <g
                         transform="translate(189.58978,-91.352839)"
                         style="display:inline"
                         id="g5690">
                        <g
                           transform="translate(-76.461264,-44.944461)"
                           style="display:inline"
                           id="g5728">
                          <g
                             transform="translate(-86.916253,-6.6227536)"
                             style="display:inline"
                             id="g5704">
                            <g
                               transform="translate(-70.071412,-2.6693375)"
                               style="display:inline"
                               id="g5697">
                              <g
                                 style="display:inline"
                                 id="g1493"
                                 transform="translate(199.63046,3.6401628)">
                                <path
                                   inkscape:connector-curvature="0"
                                   id="path1124"
                                   d="m 34.674021,323.57376 13.39659,40.00842 c 6.30101,-1.91503 10.89288,-8.10207 10.89288,-15.48434 v -8.42326 c 0,-8.91976 -6.70132,-16.10082 -15.02492,-16.10082 z m -7.27605,39.36349 c 0.44968,0.20315 0.91027,0.38368 1.38131,0.54002 -0.47088,-0.1563 -0.93177,-0.33695 -1.38131,-0.54002 z m 1.38183,0.54002 c 0.47088,0.15628 0.95202,0.28848 1.44177,0.39533 -0.48992,-0.10688 -0.97073,-0.23899 -1.44177,-0.39533 z m 19.28617,0.10646 c -0.45896,0.13932 -0.92728,0.25486 -1.40302,0.3483 0.47608,-0.0928 0.94397,-0.20896 1.40302,-0.3483 z m -1.58647,0.38292 c -0.12737,0.0233 -0.25499,0.0458 -0.38344,0.0656 0.12855,-0.0197 0.25598,-0.0425 0.38344,-0.0656 z m -15.51637,0.047 c 0.74763,0.12175 1.51358,0.18501 2.29392,0.18501 -0.78034,0 -1.54628,-0.0633 -2.29392,-0.18501 z m 14.56707,0.0951 c -0.0765,0.009 -0.15363,0.0143 -0.23047,0.0217 0.0768,-0.007 0.15401,-0.0131 0.23047,-0.0217 z m -0.68574,0.0589 c -0.0791,0.005 -0.15829,0.01 -0.23772,0.0134 0.0795,-0.004 0.1586,-0.008 0.23772,-0.0134 z"
                                   style="color:#000000;clip-rule:nonzero;display:inline;overflow:visible;visibility:visible;opacity:1;isolation:auto;mix-blend-mode:normal;color-interpolation:sRGB;color-interpolation-filters:linearRGB;solid-color:#000000;solid-opacity:1;fill:#eeedee;fill-opacity:1;fill-rule:nonzero;stroke:none;stroke-width:0.18097498;stroke-linecap:butt;stroke-linejoin:miter;stroke-miterlimit:4;stroke-dasharray:none;stroke-dashoffset:0;stroke-opacity:1;marker:none;color-rendering:auto;image-rendering:auto;shape-rendering:auto;text-rendering:auto;enable-background:accumulate" />
                                <path
                                   inkscape:connector-curvature="0"
                                   id="path1126"
                                   d="m 33.257051,323.5736 c -8.32361,0 -15.02493,7.18106 -15.02493,16.10082 v 8.42378 c 0,8.91977 6.70132,16.10031 15.02493,16.10031 h 10.68152 c 1.43475,0 2.81973,-0.21765 4.13205,-0.6165 l -13.3966,-40.00841 z"
                                   style="color:#000000;clip-rule:nonzero;display:inline;overflow:visible;visibility:visible;opacity:1;isolation:auto;mix-blend-mode:normal;color-interpolation:sRGB;color-interpolation-filters:linearRGB;solid-color:#000000;solid-opacity:1;fill:#3c5a99;fill-opacity:1;fill-rule:nonzero;stroke:none;stroke-width:0.18097498;stroke-linecap:butt;stroke-linejoin:miter;stroke-miterlimit:4;stroke-dasharray:none;stroke-dashoffset:0;stroke-opacity:1;marker:none;color-rendering:auto;image-rendering:auto;shape-rendering:auto;text-rendering:auto;enable-background:accumulate" />
                                <path
                                   inkscape:connector-curvature="0"
                                   d="m 52.436551,343.4744 c 0.87287,0 1.57222,-0.70461 1.57222,-1.57746 0,-0.87287 -0.69935,-1.57748 -1.57222,-1.57748 -0.87287,0 -1.57746,0.70461 -1.57746,1.57748 0,0.87285 0.70459,1.57746 1.57746,1.57746 z m -4.20656,0 c 0.87283,0 1.57219,-0.70461 1.57219,-1.57746 0,-0.87287 -0.69936,-1.57748 -1.57219,-1.57748 -0.87287,0 -1.57746,0.70461 -1.57746,1.57748 0,0.87285 0.70459,1.57746 1.57746,1.57746 z m 0,1.05164 c -1.22517,0 -3.68077,0.61521 -3.68077,1.84036 v 1.31457 h 7.36151 v -1.31457 c 0,-1.22515 -2.45558,-1.84036 -3.68074,-1.84036 z m 4.20656,0 c -0.15243,0 -0.32601,0.0104 -0.51003,0.0262 0.60993,0.4417 1.03586,1.03589 1.03586,1.8141 v 1.31455 h 3.15494 v -1.31454 c 0,-1.22515 -2.4556,-1.84039 -3.68077,-1.84039 z"
                                   id="path1128"
                                   style="fill:#64808e;fill-opacity:1;stroke-width:0.52582198" />
                                <path
                                   inkscape:connector-curvature="0"
                                   id="path1130"
                                   d="m 34.623891,323.42425 0.0181,0.0534 0.10438,-0.0534 z m 0.0501,0.14996 13.34647,40.023 c 6.301,-1.9229 10.89288,-8.13537 10.89288,-15.54801 v -0.5713 z m 11.75535,40.40906 c -0.12736,0.0234 -0.25499,0.046 -0.38344,0.0658 0.12855,-0.0198 0.25598,-0.0427 0.38344,-0.0658 z m -0.94929,0.1427 c -0.0765,0.009 -0.15363,0.0143 -0.23048,0.0218 0.0768,-0.007 0.15401,-0.0131 0.23048,-0.0218 z m -0.68575,0.0591 c -0.0791,0.005 -0.15828,0.01 -0.23771,0.0134 0.0794,-0.004 0.15859,-0.008 0.23771,-0.0134 z"
                                   style="color:#000000;clip-rule:nonzero;display:inline;overflow:visible;visibility:visible;opacity:0.35;isolation:auto;mix-blend-mode:normal;color-interpolation:sRGB;color-interpolation-filters:linearRGB;solid-color:#000000;solid-opacity:1;fill:#bfbfbf;fill-opacity:1;fill-rule:nonzero;stroke:none;stroke-width:0.18134674;stroke-linecap:butt;stroke-linejoin:miter;stroke-miterlimit:4;stroke-dasharray:none;stroke-dashoffset:0;stroke-opacity:1;marker:none;color-rendering:auto;image-rendering:auto;shape-rendering:auto;text-rendering:auto;enable-background:accumulate"
                                   sodipodi:nodetypes="ccccccsccccccccccc" />
                                <path
                                   d="m 31.996711,352.41254 v -8.20369 h 2.75358 l 0.41231,-3.19712 h -3.16589 v -2.04116 c 0,-0.92564 0.25703,-1.55644 1.58438,-1.55644 l 1.69297,-6.2e-4 v -2.85953 c -0.2928,-0.039 -1.29776,-0.12601 -2.46695,-0.12601 -2.4409,0 -4.112,1.48993 -4.112,4.22609 v 2.35779 h -2.76065 v 3.19712 h 2.76065 v 8.20369 z"
                                   id="path1132"
                                   inkscape:connector-curvature="0"
                                   style="fill:#eeedee;fill-opacity:1;stroke-width:0.08219886" />
                              </g>
                            </g>
                          </g>
                        </g>
                      </g>
                    </g>
                  </g>
                </g>
              </g>
            </g>
          </g>
        </g>
      </g>
    </g>
  </g>
</svg>
